<svg width="89" height="80" viewBox="0 0 89 80" fill="none" xmlns="http://www.w3.org/2000/svg">
<path d="M36.2171 5.39633C39.986 -1.1728 49.408 -1.1728 53.1769 5.39634L87.0964 64.5186C90.8652 71.0877 86.1542 79.2991 78.6165 79.2991H10.7775C3.23985 79.2991 -1.47119 71.0877 2.29764 64.5186L36.2171 5.39633Z" fill="#D45224"/>
<path d="M42.4184 52.2715C41.7382 52.2715 41.1867 51.7201 41.1867 51.0398V28.7988C41.1867 28.1186 41.7382 27.5671 42.4184 27.5671H47.0497C47.7299 27.5671 48.2814 28.1186 48.2814 28.7989V51.0398C48.2814 51.7201 47.7299 52.2715 47.0497 52.2715H42.4184ZM42.2337 64.5185C41.5534 64.5185 41.002 63.9671 41.002 63.2868V57.9733C41.002 57.2931 41.5534 56.7416 42.2337 56.7416H47.1605C47.8408 56.7416 48.3922 57.2931 48.3922 57.9733V63.2868C48.3922 63.9671 47.8408 64.5185 47.1605 64.5185H42.2337Z" fill="white"/>
</svg>
