<svg width="174" height="45" viewBox="0 0 174 45" fill="none" xmlns="http://www.w3.org/2000/svg">
<g clip-path="url(#clip0_202_727)">
<path d="M85.2188 14.3309V14.2751C85.2188 13.4387 85.0518 12.658 84.7735 12.0446C84.4952 11.4312 84.1056 10.8736 83.549 10.4275C83.048 9.98142 82.3801 9.59109 81.6008 9.25652C80.8215 8.92194 79.9309 8.64313 78.9847 8.36432C78.1497 8.14127 77.4261 7.91823 76.8695 7.75094C76.3129 7.58365 75.9232 7.41637 75.5893 7.19332C75.2553 7.02603 75.0327 6.80299 74.9213 6.57994C74.81 6.35689 74.7543 6.07808 74.7543 5.74351V5.68774C74.7543 5.18588 74.977 4.79555 75.3666 4.46098C75.8119 4.12641 76.4242 3.95912 77.2591 3.95912C78.0941 3.95912 78.929 4.12641 79.7639 4.51674C80.5989 4.85131 81.4895 5.29741 82.3244 5.91079L84.5509 2.67659C83.549 1.89592 82.4357 1.28254 81.2112 0.836442C80.0422 0.390346 78.7064 0.167297 77.2591 0.167297C76.2572 0.167297 75.311 0.334584 74.476 0.613394C73.6411 0.892204 72.9175 1.28254 72.3052 1.84016C71.6929 2.34202 71.2476 3.01116 70.9137 3.73607C70.5797 4.46098 70.4127 5.24165 70.4127 6.13384V6.1896C70.4127 7.13756 70.5797 7.97399 70.858 8.64313C71.192 9.31228 71.6373 9.8699 72.1939 10.316C72.7505 10.7621 73.4184 11.0967 74.2534 11.4312C75.0326 11.71 75.9789 11.9889 76.9252 12.2677C77.7601 12.4907 78.428 12.658 78.929 12.8811C79.43 13.0483 79.8753 13.2714 80.1536 13.4387C80.4319 13.606 80.6545 13.829 80.7659 14.0521C80.8772 14.2751 80.9328 14.4982 80.9328 14.777V14.8327C80.9328 15.3903 80.6545 15.8922 80.1536 16.2268C79.6526 16.5613 78.9847 16.7286 78.0941 16.7286C76.9808 16.7286 75.9232 16.5056 74.977 16.0595C74.0307 15.6134 73.1401 15.0558 72.2495 14.3309L69.6891 17.3978C70.858 18.4573 72.1939 19.2379 73.5854 19.7956C75.0326 20.2974 76.4799 20.5762 77.9828 20.5762C79.0403 20.5762 80.0423 20.4647 80.8772 20.1859C81.7678 19.9071 82.4914 19.5167 83.1593 19.0149C83.7716 18.513 84.2726 17.8439 84.6622 17.119C85.0518 16.171 85.2188 15.2788 85.2188 14.3309ZM92.9002 20.1301V0.50187H88.6142V20.1301H92.9002ZM112.159 20.1301V16.2825H101.528V12.1561H110.768V8.30856H101.528V4.29369H112.048V0.50187H97.2419V20.1301H112.159ZM132.365 20.1301L127.578 13.1041C128.802 12.658 129.86 11.9331 130.584 10.9294C131.363 9.92566 131.752 8.64313 131.752 7.02603V6.97027C131.752 4.90707 131.084 3.34574 129.804 2.17473C128.524 1.05949 126.687 0.446108 124.349 0.446108H115.388V20.0744H119.674V13.829H123.069L127.244 20.1301H132.365ZM127.411 7.24908C127.411 8.08551 127.132 8.75466 126.52 9.25652C125.964 9.75838 125.129 10.0372 124.071 10.0372H119.729V4.34945H124.015C125.073 4.34945 125.908 4.5725 126.52 5.07436C127.132 5.52046 127.411 6.24536 127.411 7.19332V7.24908ZM152.069 20.1301L147.282 13.1041C148.507 12.658 149.564 11.9331 150.288 10.9294C151.067 9.92566 151.457 8.64313 151.457 7.02603V6.97027C151.457 4.90707 150.789 3.34574 149.509 2.17473C148.228 1.05949 146.392 0.446108 144.054 0.446108H135.092V20.0744H139.378V13.829H142.774L146.948 20.1301H152.069ZM147.115 7.24908C147.115 8.08551 146.837 8.75466 146.225 9.25652C145.668 9.75838 144.833 10.0372 143.775 10.0372H139.434V4.34945H143.72C144.777 4.34945 145.612 4.5725 146.225 5.07436C146.837 5.52046 147.115 6.24536 147.115 7.19332V7.24908ZM173.889 20.1301L165.484 0.334584H161.532L153.127 20.1301H157.524L159.305 15.7249H167.599L169.38 20.1301H173.889ZM166.04 11.8773H160.864L163.48 5.52046L166.04 11.8773Z" fill="#1F3B7E"/>
<path d="M34.1426 1.73565L32.1936 -0.0126953L-0.000100786 36.0049L1.94891 37.7532L34.1426 1.73565Z" fill="#377CA2"/>
<path d="M48.6636 1.7492L46.7146 0.000854492L8.05994 43.2469L10.009 44.9952L48.6636 1.7492Z" fill="#377CA2"/>
<path d="M60.9407 4.28436L58.9916 2.53601L29.2859 35.7702L31.2349 37.5186L60.9407 4.28436Z" fill="#377CA2"/>
<path d="M38.1866 5.33545L36.2376 3.5871L7.12593 36.1566L9.07494 37.905L38.1866 5.33545Z" fill="#377CA2"/>
<path d="M45.2949 13.6307L43.3459 11.8824L22.1434 35.6033L24.0924 37.3516L45.2949 13.6307Z" fill="#377CA2"/>
<path d="M59.3828 14.0965L57.4337 12.3481L41.8753 29.7546L43.8243 31.5029L59.3828 14.0965Z" fill="#377CA2"/>
<path d="M56.2702 25.7566L54.3211 24.0083L43.5157 36.0972L45.4647 37.8456L56.2702 25.7566Z" fill="#377CA2"/>
<path d="M59.686 30.0687L57.737 28.3203L51.2017 35.6318L53.1508 37.3802L59.686 30.0687Z" fill="#377CA2"/>
<path d="M63.7129 33.6183L61.7639 31.8699L58.7562 35.2349L60.7052 36.9832L63.7129 33.6183Z" fill="#377CA2"/>
<path d="M70.4684 24.7584H72.1382L76.7582 36.0223L81.4338 24.7584H82.9923L77.3705 37.974H76.0902L70.4684 24.7584Z" fill="#1F3B7E"/>
<path d="M85.5528 24.7584H95.0154V26.0967H87.0557V30.5576H94.1804V31.8959H87.0557V36.4684H95.1267V37.8067H85.6085V24.7584H85.5528Z" fill="#1F3B7E"/>
<path d="M98.0768 24.7584H99.4684L107.706 35.2416V24.7584H109.154V37.8625H107.985L99.524 27.1561V37.8625H98.0768V24.7584Z" fill="#1F3B7E"/>
<path d="M116.278 26.1524H111.881V24.8141H122.123V26.1524H117.726V37.8625H116.223V26.1524H116.278Z" fill="#1F3B7E"/>
<path d="M124.683 32.3978V24.7584H126.131V32.2862C126.131 35.1301 127.633 36.6914 130.138 36.6914C132.532 36.6914 134.09 35.2416 134.09 32.3978V24.7584H135.537V32.2305C135.537 36.0223 133.367 38.0297 130.083 38.0297C126.91 38.0855 124.683 36.0781 124.683 32.3978Z" fill="#1F3B7E"/>
<path d="M139.044 24.7584H144.666C146.28 24.7584 147.56 25.2602 148.395 26.0409C149.008 26.6543 149.397 27.6022 149.397 28.6059V28.6617C149.397 30.8364 147.894 32.119 145.835 32.4535L149.843 37.8067H148.061L144.276 32.7323H140.547V37.8067H139.1V24.7584H139.044ZM144.555 31.4498C146.503 31.4498 147.894 30.4461 147.894 28.7732V28.7175C147.894 27.1004 146.67 26.1524 144.555 26.1524H140.547V31.4498H144.555Z" fill="#1F3B7E"/>
<path d="M152.57 24.7584H162.033V26.0967H154.073V30.5576H161.198V31.8959H154.073V36.4684H162.144V37.8067H152.626V24.7584H152.57Z" fill="#1F3B7E"/>
<path d="M164.203 35.9666L165.094 34.9071C166.43 36.1339 167.766 36.7472 169.547 36.7472C171.328 36.7472 172.441 35.7993 172.441 34.5168V34.461C172.441 33.2342 171.774 32.5651 169.046 31.9517C166.04 31.2826 164.649 30.3346 164.649 28.1599V28.1041C164.649 26.0409 166.486 24.5353 168.935 24.5353C170.827 24.5353 172.219 25.093 173.499 26.1524L172.664 27.2677C171.44 26.264 170.215 25.8736 168.879 25.8736C167.209 25.8736 166.096 26.8216 166.096 27.9926V28.0484C166.096 29.2751 166.764 30 169.658 30.6134C172.553 31.2268 173.889 32.342 173.889 34.2937V34.3495C173.889 36.5799 171.996 38.0298 169.436 38.0298C167.488 38.0298 165.762 37.3606 164.203 35.9666Z" fill="#1F3B7E"/>
</g>
<defs>
<clipPath id="clip0_202_727">
<rect width="174" height="45" fill="white"/>
</clipPath>
</defs>
</svg>
